<?xml version="1.0" encoding="utf-8"?>
<!-- Generator: Adobe Illustrator 20.1.0, SVG Export Plug-In . SVG Version: 6.00 Build 0)  -->
<svg version="1.1" id="Capa_1" xmlns="http://www.w3.org/2000/svg" xmlns:xlink="http://www.w3.org/1999/xlink" x="0px" y="0px"
	 viewBox="0 0 128 128" style="enable-background:new 0 0 128 128;" xml:space="preserve">
<style type="text/css">
	.st0{fill:#FF9C0B;}
	.st1{fill:#FB5722;}
	.st2{fill:#F2F2F2;}
	.st3{fill:#FF9B07;}
	.st4{fill:#097243;}
	.st5{fill:#13A564;}
	.st6{fill:#4D7BBE;}
</style>
<g>
	<path class="st0" d="M83.3,82.4l27.3-26.8v-1.5c0-2.4-2-4.3-4.4-4.3H60.4c-2.4,0-4.4,1.9-4.4,4.3v31.6l15.2-14.8L83.3,82.4"/>
	<path class="st1" d="M71.2,83L56,97.9v1.4c0,2.4,2,4.3,4.4,4.3h45.8c2.4,0,4.4-1.9,4.4-4.3V68L83.3,94.8L71.2,83"/>
	<g>
		<polyline class="st2" points="56,85.7 71.1,70.9 83.3,82.4 110.6,55.7 110.6,68 83.3,94.8 71.2,83 56,97.9 56,85.7 		"/>
	</g>
	<path class="st3" d="M77.2,88.9l0-12.2L71.2,83L77.2,88.9"/>
</g>
<g>
	<path class="st4" d="M39.3,49.6l8.2,24.7c0,0,0,0,0,0c0.4,1,0.9,1.9,1.7,2.6l0.9-1.9l-0.5-53.3L49.2,20l0-0.1l-0.8,0.6L39,48.9
		L39.3,49.6"/>
	<path class="st5" d="M54.5,79.2l14.4,0l0,0L49.2,20v57C50.5,78.4,52.4,79.2,54.5,79.2"/>
	<path class="st6" d="M29.4,19.9L29.4,19.9L29.4,19.9L9.6,79.2l0,0h14.4c2.1,0,4-0.9,5.3-2.3c0.7-0.8,1.3-1.6,1.7-2.6c0,0,0,0,0,0
		l18.2-54.4L29.4,19.9L29.4,19.9L29.4,19.9"/>
</g>
</svg>
