<?xml version="1.0" encoding="utf-8"?>
<!-- Generator: Adobe Illustrator 22.0.1, SVG Export Plug-In . SVG Version: 6.00 Build 0)  -->
<svg version="1.1" id="Capa_1" xmlns="http://www.w3.org/2000/svg" xmlns:xlink="http://www.w3.org/1999/xlink" x="0px" y="0px"
	 viewBox="0 0 150 150" style="enable-background:new 0 0 150 150;" xml:space="preserve">
<style type="text/css">
	.st0{fill:none;}
	.st1{fill:#DFA12E;}
	.st2{fill:#CF7123;}
	.st3{clip-path:url(#SVGID_2_);fill:#3E80BF;}
	.st4{clip-path:url(#SVGID_4_);fill:#E5B22C;}
	.st5{clip-path:url(#SVGID_6_);fill:#3C9951;}
	.st6{clip-path:url(#SVGID_8_);fill:#E5B22C;}
	.st7{clip-path:url(#SVGID_10_);fill:#D7B930;}
</style>
<g>
	<rect x="112.4" y="66" class="st0" width="69" height="69"/>
	<g>
		<g>
			<path class="st1" d="M114.1,70v50.5c0,5.6,3.9,8.8,8,8.8c3.8,0,8-2.7,8-8.8V70.4c0-5.2-3.8-8.4-8-8.4S114.1,65.6,114.1,70z"/>
		</g>
		<g>
			<path class="st2" d="M93.1,95.6v24.9c0,5.6,3.9,8.8,8,8.8c3.8,0,8-2.7,8-8.8V96c0-5.2-3.8-8.4-8-8.4S93.1,91.2,93.1,95.6z"/>
		</g>
		<g>
			<circle class="st2" cx="80.1" cy="121.3" r="8"/>
		</g>
	</g>
	<g>
		<g>
			<g>
				<defs>
					<rect id="SVGID_1_" x="24.4" y="20.8" width="75" height="93.4"/>
				</defs>
				<clipPath id="SVGID_2_">
					<use xlink:href="#SVGID_1_"  style="overflow:visible;"/>
				</clipPath>
				<path class="st3" d="M50.1,29.3c0.7-1.9,1.7-3.6,3.2-5c5.9-5.7,15.5-4.3,19.5,2.9c3,5.4,6.2,10.8,9.2,16.1
					c5.1,8.9,10.3,17.9,15.4,26.8c4.3,7.5-0.4,17-8.8,18.3c-5.2,0.8-10.1-1.6-12.8-6.3c-4.5-7.9-9.1-15.7-13.6-23.5
					c-0.1-0.2-0.2-0.3-0.3-0.5c-0.5-0.4-0.7-1-1-1.5c-2-3.5-4.1-7-6.1-10.5c-1.3-2.3-2.6-4.5-3.9-6.8c-1.2-2-1.7-4.2-1.6-6.6
					C49.4,31.6,49.6,30.4,50.1,29.3"/>
			</g>
			<g>
				<defs>
					<rect id="SVGID_3_" x="24.4" y="20.8" width="75" height="93.4"/>
				</defs>
				<clipPath id="SVGID_4_">
					<use xlink:href="#SVGID_3_"  style="overflow:visible;"/>
				</clipPath>
				<path class="st4" d="M50.1,29.3c-0.3,1.1-0.5,2.2-0.6,3.3c-0.1,2.5,0.5,4.8,1.8,7c3.3,5.6,6.6,11.3,9.8,17
					c0.3,0.5,0.5,1,0.8,1.5c-1.8,3.1-3.6,6.2-5.4,9.3c-2.5,4.3-5,8.7-7.6,13c-0.1,0-0.1-0.1-0.2-0.1c0-0.2,0.1-0.4,0.1-0.7
					c1.2-4.5,0.2-8.5-2.9-11.9c-1.9-2.1-4.3-3.2-7-3.6c-3.6-0.5-6.8,0.4-9.6,2.7c-0.5,0.4-0.8,1-1.4,1.3c-0.1,0-0.2-0.1-0.2-0.1
					c1.4-2.5,2.8-5,4.3-7.4C38,50.1,43.9,39.9,49.9,29.6C49.9,29.5,50,29.4,50.1,29.3"/>
			</g>
			<g>
				<defs>
					<rect id="SVGID_5_" x="24.4" y="20.8" width="75" height="93.4"/>
				</defs>
				<clipPath id="SVGID_6_">
					<use xlink:href="#SVGID_5_"  style="overflow:visible;"/>
				</clipPath>
				<path class="st5" d="M28,68c0.6-0.5,1.1-1,1.7-1.5c7.3-5.7,18.2-1.6,19.7,7.5c0.4,2.2,0.2,4.3-0.5,6.4c0,0.2-0.1,0.3-0.1,0.5
					c-0.3,0.5-0.5,1-0.8,1.5c-2.7,4.4-6.6,6.6-11.7,6.2c-5.9-0.4-10.5-4.8-11.3-10.7c-0.4-2.8,0.2-5.5,1.6-7.9c0.3-0.5,0.7-1,1-1.6
					C27.7,68.2,27.7,68,28,68"/>
			</g>
			<g>
				<defs>
					<rect id="SVGID_7_" x="24.4" y="20.8" width="75" height="93.4"/>
				</defs>
				<clipPath id="SVGID_8_">
					<use xlink:href="#SVGID_7_"  style="overflow:visible;"/>
				</clipPath>
				<path class="st6" d="M28,68c-0.1,0.1-0.1,0.3-0.3,0.4c0-0.2,0.1-0.3,0.2-0.5L28,68"/>
			</g>
			<g>
				<defs>
					<rect id="SVGID_9_" x="24.4" y="20.8" width="75" height="93.4"/>
				</defs>
				<clipPath id="SVGID_10_">
					<use xlink:href="#SVGID_9_"  style="overflow:visible;"/>
				</clipPath>
				<path class="st7" d="M48.8,80.8c-0.1-0.2,0-0.4,0.1-0.5c0,0,0.1,0.1,0.1,0.1L48.8,80.8"/>
			</g>
			<g>
				<defs>
					<rect id="SVGID_11_" x="24.4" y="20.8" width="75" height="93.4"/>
				</defs>
				<clipPath id="SVGID_12_">
					<use xlink:href="#SVGID_11_"  style="overflow:visible;"/>
				</clipPath>
			</g>
			<g>
				<defs>
					<rect id="SVGID_13_" x="24.4" y="20.8" width="75" height="93.4"/>
				</defs>
				<clipPath id="SVGID_14_">
					<use xlink:href="#SVGID_13_"  style="overflow:visible;"/>
				</clipPath>
			</g>
			<g>
				<defs>
					<rect id="SVGID_15_" x="24.4" y="20.8" width="75" height="93.4"/>
				</defs>
				<clipPath id="SVGID_16_">
					<use xlink:href="#SVGID_15_"  style="overflow:visible;"/>
				</clipPath>
			</g>
		</g>
	</g>
</g>
</svg>
