<?xml version="1.0" encoding="utf-8"?>
<!-- Generator: Adobe Illustrator 20.1.0, SVG Export Plug-In . SVG Version: 6.00 Build 0)  -->
<svg version="1.1" id="Capa_1" xmlns="http://www.w3.org/2000/svg" xmlns:xlink="http://www.w3.org/1999/xlink" x="0px" y="0px"
	 viewBox="0 0 128 128" style="enable-background:new 0 0 128 128;" xml:space="preserve">
<style type="text/css">
	.st0{fill:#CD6799;}
</style>
<path class="st0" d="M97.2,69.2c-3.2,0-6,0.8-8.3,1.9c-0.9-1.7-1.7-3.2-1.9-4.3c-0.2-1.3-0.4-2.1-0.2-3.6c0.2-1.5,1.1-3.8,1.1-3.9
	s-0.2-1-2.1-1c-1.8,0-3.4,0.4-3.6,0.8c-0.2,0.5-0.5,1.6-0.8,2.7c-0.3,1.7-3.7,7.7-5.6,10.8c-0.6-1.2-1.2-2.3-1.3-3.2
	c-0.2-1.3-0.4-2.1-0.2-3.6s1.1-3.8,1.1-3.9s-0.2-1-2.1-1c-1.8,0-3.4,0.4-3.6,0.8c-0.2,0.5-0.4,1.6-0.8,2.7
	c-0.4,1.1-4.9,11.1-6.1,13.7c-0.6,1.3-1.1,2.4-1.5,3.1l0,0c0,0,0,0.1-0.1,0.1c-0.3,0.6-0.5,1-0.5,1s0,0,0,0
	c-0.3,0.5-0.5,0.9-0.7,0.9c-0.1,0-0.3-1.2,0-2.9c0.7-3.5,2.3-8.9,2.3-9.1c0-0.1,0.3-1-1-1.5c-1.3-0.5-1.8,0.3-1.9,0.3
	c-0.1,0-0.2,0.3-0.2,0.3s1.5-6.1-2.8-6.1c-2.7,0-6.3,2.9-8.1,5.5c-1.1,0.6-3.6,2-6.2,3.4c-1,0.6-2,1.1-3,1.6
	c-0.1-0.1-0.1-0.2-0.2-0.2C34,69.3,24.5,65.4,24.9,58c0.2-2.7,1.1-9.8,18.3-18.3c14.2-7,25.4-5,27.4-0.8c2.8,6.1-6,17.5-20.7,19.1
	c-5.6,0.6-8.5-1.5-9.2-2.3c-0.8-0.8-0.9-0.9-1.2-0.7c-0.5,0.3-0.2,1,0,1.4c0.4,1.1,2.2,3.2,5.3,4.2c2.7,0.9,9.2,1.4,17.2-1.7
	c8.9-3.4,15.8-13,13.8-21c-2-8.1-15.5-10.8-28.2-6.3c-7.6,2.7-15.8,6.9-21.7,12.4c-7,6.6-8.1,12.3-7.7,14.6c1.6,8.5,13.3,14,18,18.1
	c-0.2,0.1-0.5,0.3-0.6,0.4c-2.3,1.2-11.3,5.8-13.5,10.7c-2.5,5.6,0.4,9.6,2.3,10.1c6,1.7,12.2-1.3,15.5-6.3s2.9-11.4,1.4-14.3
	c0,0,0-0.1-0.1-0.1c0.6-0.4,1.2-0.7,1.8-1.1c1.2-0.7,2.4-1.4,3.4-1.9c-0.6,1.6-1,3.4-1.2,6.1c-0.3,3.2,1,7.3,2.7,8.9
	c0.8,0.7,1.6,0.7,2.2,0.7c2,0,2.9-1.6,3.9-3.6c1.2-2.4,2.3-5.2,2.3-5.2s-1.4,7.5,2.3,7.5c1.3,0,2.7-1.7,3.3-2.6c0,0,0,0,0,0
	s0-0.1,0.1-0.2c0.1-0.2,0.2-0.4,0.2-0.4s0,0,0,0c0.5-0.9,1.7-3.1,3.5-6.6c2.3-4.6,4.6-10.3,4.6-10.3s0.2,1.4,0.9,3.7
	c0.4,1.4,1.2,2.9,1.9,4.3c-0.5,0.8-0.9,1.2-0.9,1.2s0,0,0,0c-0.4,0.6-0.9,1.2-1.4,1.8c-1.8,2.2-4,4.7-4.3,5.4
	c-0.4,0.9-0.3,1.5,0.4,2c0.5,0.4,1.4,0.4,2.3,0.4c1.6-0.1,2.8-0.5,3.4-0.8c0.9-0.3,1.9-0.8,2.9-1.5c1.8-1.3,2.9-3.2,2.8-5.7
	c-0.1-1.4-0.5-2.8-1.1-4.1c0.2-0.2,0.3-0.5,0.5-0.7c2.8-4.2,5-8.7,5-8.7s0.2,1.4,0.9,3.7c0.3,1.2,1,2.5,1.6,3.7
	c-2.7,2.2-4.3,4.7-4.9,6.3c-1.1,3.1-0.2,4.4,1.3,4.8c0.7,0.2,1.7-0.2,2.5-0.5c0.9-0.3,2.1-0.8,3.1-1.6c1.8-1.3,3.5-3.2,3.4-5.7
	c-0.1-1.1-0.4-2.3-0.8-3.4c2.3-0.9,5.2-1.5,8.9-1c8,0.9,9.6,5.9,9.3,8c-0.3,2.1-2,3.2-2.5,3.6c-0.6,0.4-0.7,0.5-0.7,0.7
	c0.1,0.4,0.3,0.4,0.8,0.3c0.7-0.1,4.2-1.7,4.4-5.6C110.3,74.5,105.6,69.1,97.2,69.2z M35.5,90c-2.7,2.9-6.4,4-8,3.1
	c-1.7-1-1-5.3,2.2-8.3c2-1.9,4.5-3.6,6.2-4.7c0.4-0.2,1-0.6,1.6-1c0.1-0.1,0.2-0.1,0.2-0.1l0,0c0.1-0.1,0.3-0.2,0.4-0.3
	C39.4,83.1,38.3,86.9,35.5,90z M54.8,76.8c-0.9,2.3-2.9,8-4,7.7c-1-0.3-1.6-4.6-0.2-9c0.7-2.2,2.3-4.8,3.1-5.8
	c1.4-1.6,3-2.2,3.4-1.5C57.7,69.2,55.4,75.4,54.8,76.8z M70.8,84.5c-0.4,0.2-0.8,0.3-0.9,0.2c-0.1-0.1,0.2-0.3,0.2-0.3
	s2-2.2,2.8-3.1c0.5-0.6,1-1.2,1.6-2c0,0.1,0,0.2,0,0.2C74.4,82,71.9,83.8,70.8,84.5z M83.1,81.7c-0.3-0.2-0.2-0.9,0.7-3
	c0.4-0.8,1.2-2.2,2.7-3.5c0.2,0.5,0.3,1.1,0.3,1.5C86.8,79.9,84.5,81.2,83.1,81.7z"/>
</svg>
